PathFileType	4	(X/Y/Z)	Kaydara	
DataRate	CameraRate	NumFrames	NumMarkers	Units	OrigDataRate	OrigDataStartFrame	OrigNumFrames	
120.00	120.00	4	72	mm	120.00	235	268	
Frame#	Time	Hips			RightUpLeg			RightLeg			RightFoot			RightFoot_End			LeftUpLeg			LeftLeg			LeftFoot			LeftFoot_End			Spine			Spine1			Spine2			Spine3			Neck			Head			Head_End			RightShoulder			RightArm			RightForeArm			RightHand			RightHandThumb1			RightHandThumb2			RightHandThumb3			RightHandThumb3_End			RightInHandIndex			RightHandIndex1			RightHandIndex2			RightHandIndex3			RightHandIndex3_End			RightInHandMiddle			RightHandMiddle1			RightHandMiddle2			RightHandMiddle3			RightHandMiddle3_End			RightInHandRing			RightHandRing1			RightHandRing2			RightHandRing3			RightHandRing3_End			RightInHandPinky			RightHandPinky1			RightHandPinky2			RightHandPinky3			RightHandPinky3_End			LeftShoulder			LeftArm			LeftForeArm			LeftHand			LeftHandThumb1			LeftHandThumb2			LeftHandThumb3			LeftHandThumb3_End			LeftInHandIndex			LeftHandIndex1			LeftHandIndex2			LeftHandIndex3			LeftHandIndex3_End			LeftInHandMiddle			LeftHandMiddle1			LeftHandMiddle2			LeftHandMiddle3			LeftHandMiddle3_End			LeftInHandRing			LeftHandRing1			LeftHandRing2			LeftHandRing3			LeftHandRing3_End			LeftInHandPinky			LeftHandPinky1			LeftHandPinky2			LeftHandPinky3			LeftHandPinky3_End			
		X1	Y1	Z1	X2	Y2	Z2	X3	Y3	Z3	X4	Y4	Z4	X5	Y5	Z5	X6	Y6	Z6	X7	Y7	Z7	X8	Y8	Z8	X9	Y9	Z9	X10	Y10	Z10	X11	Y11	Z11	X12	Y12	Z12	X13	Y13	Z13	X14	Y14	Z14	X15	Y15	Z15	X16	Y16	Z16	X17	Y17	Z17	X18	Y18	Z18	X19	Y19	Z19	X20	Y20	Z20	X21	Y21	Z21	X22	Y22	Z22	X23	Y23	Z23	X24	Y24	Z24	X25	Y25	Z25	X26	Y26	Z26	X27	Y27	Z27	X28	Y28	Z28	X29	Y29	Z29	X30	Y30	Z30	X31	Y31	Z31	X32	Y32	Z32	X33	Y33	Z33	X34	Y34	Z34	X35	Y35	Z35	X36	Y36	Z36	X37	Y37	Z37	X38	Y38	Z38	X39	Y39	Z39	X40	Y40	Z40	X41	Y41	Z41	X42	Y42	Z42	X43	Y43	Z43	X44	Y44	Z44	X45	Y45	Z45	X46	Y46	Z46	X47	Y47	Z47	X48	Y48	Z48	X49	Y49	Z49	X50	Y50	Z50	X51	Y51	Z51	X52	Y52	Z52	X53	Y53	Z53	X54	Y54	Z54	X55	Y55	Z55	X56	Y56	Z56	X57	Y57	Z57	X58	Y58	Z58	X59	Y59	Z59	X60	Y60	Z60	X61	Y61	Z61	X62	Y62	Z62	X63	Y63	Z63	X64	Y64	Z64	X65	Y65	Z65	X66	Y66	Z66	X67	Y67	Z67	X68	Y68	Z68	X69	Y69	Z69	X70	Y70	Z70	X71	Y71	Z71	X72	Y72	Z72	

235	1.95	2446.805	859.65103	-201.189	2468.9098863760346	835.5122468208351	-241.8815389509316	2409.344030598031	429.5455017744234	-268.81210251565926	2504.885672777864	83.55740044438164	-433.86671700508236	2511.106591099447	-24.51994016129759	-307.0041421422652	2431.00885379324	854.9170597644946	-147.01958506973406	2305.6538688690116	467.03238866938204	-54.13651547834855	2226.723215911468	84.26866839165196	89.41535465603528	2292.076162136146	22.818135552496475	255.18695937616158	2417.831099460636	987.2617973376317	-257.6149147899687	2374.1103842194375	1064.1722754248763	-297.05309843862557	2323.538824056346	1141.4171794905258	-337.4658019423124	2267.3460421415048	1209.7615385510628	-375.53863235884467	2206.1765727004627	1282.3559758886665	-411.9486893419116	2160.7056445078797	1356.0878516132416	-377.53825548353154	2141.5176761829002	1452.1989077363814	-255.56363679813714	2228.69543918971	1257.0607080285033	-410.79278495396517	2242.284838086279	1243.2833678907452	-438.3037510072073	2322.944777023387	1112.790586850416	-364.2311892506047	2345.0576666647144	1115.8862347455915	-401.0475294377941	2352.080850043659	1143.372475305649	-398.23343837737514	2358.6320809554186	1159.8116056345193	-403.8808328399857	2363.3830568705157	1167.8257905555645	-408.21700105373316	2367.505147307117	1171.5691603142348	-412.17691771813327	2353.6461068447916	1133.9854655435277	-398.6471186413817	2366.4127781340185	1147.1716220289775	-399.82682220108023	2373.9912276485547	1154.2047843895575	-404.7819201448031	2376.8415776974944	1159.175073987914	-409.7116611167298	2377.9453910020266	1163.6922021219273	-415.039311193208	2353.652881523589	1124.0846596952674	-399.89954158834183	2366.1091662126373	1131.5912984768852	-401.7264434718735	2374.336606729716	1137.9140513322368	-407.30004407937605	2377.755214423454	1143.2618158255511	-413.3275404384724	2378.9531558699896	1147.888994507205	-419.19583137301964	2353.3489274435647	1116.7551860085262	-400.7151645930101	2364.298214294777	1117.1257878369402	-402.94604544661144	2371.4063929263084	1121.2431491212594	-407.97184292248295	2374.670505866269	1125.6614303482236	-413.8749698239388	2375.781039253922	1129.6614506243834	-419.4348796645367	2352.4945477405017	1107.9102990325762	-401.9291173788707	2362.0717198474845	1102.808120495003	-404.5928171118861	2367.6176890836514	1103.9294052994085	-408.8696725416561	2369.927919532626	1106.099625686129	-413.2975354930768	2370.8710248360085	1109.0372897006343	-418.29297453901347	2224.3677385812002	1261.4235675669515	-388.9553155301828	2223.272974198078	1245.5625272526872	-353.5080432432886	2269.7000786363915	1140.4685404419556	-383.28908321126	2323.3734808164786	1107.0128864179787	-363.68640173878197	2326.821235683578	1131.8786502708579	-366.0372228071784	2338.126104559649	1136.3735237669102	-373.628887360197	2346.213348897759	1136.7512021066113	-379.9525192791289	2353.138867081081	1134.7113131298033	-386.11121555846114	2327.241195952221	1125.846777459534	-369.8476653924197	2336.8300680076836	1137.6905600600871	-383.6375083702543	2347.0572773361314	1137.632331109209	-393.884980616526	2354.4476706335854	1134.3632198097366	-398.6986190327839	2361.260913111172	1129.4766904917353	-401.6324660320062	2327.6598856994133	1117.553508388459	-372.2185813863857	2337.2380292305825	1124.622096686574	-386.9510276522574	2348.426527854216	1123.415492019393	-398.4019791041809	2357.3564870603614	1118.9229096893391	-404.33848697113444	2364.818082595497	1113.3095017490414	-407.6113770983447	2327.67821792829	1111.4607198424003	-373.5446477902854	2336.1821533866364	1112.707447691022	-387.9074972890184	2345.948572799165	1110.4755409426598	-398.139804645206	2354.5699140596	1105.5153110710012	-403.9996589543643	2361.5893393724723	1099.940268390534	-407.140307271799	2327.6797667987657	1103.5545632738006	-374.6505763036249	2335.3735901490754	1100.0581013207213	-388.5201204563481	2343.179928028931	1096.4236411640163	-397.0436555083703	2349.4614797494132	1091.912061201485	-401.4774351750383	2355.6755819069385	1086.4592235495138	-404.3513928921089
236	1.958	2446.805	859.65103	-201.189	2468.6677791988322	835.4913534383523	-242.04257373762954	2409.6668304330383	429.5470210956294	-268.9711933307593	2505.292421679518	84.08911974238205	-434.8616101811913	2511.806068459878	-24.170547855172394	-308.2390916318214	2431.271922062378	854.9154792534102	-146.90838050775628	2305.364865163976	467.1727437623109	-54.22843518426453	2226.589502237364	84.28593111550292	89.1870277140252	2291.2603383634023	22.611948892529572	255.16105440801414	2417.7541048521753	987.3612210221922	-257.386991960588	2373.9496190511895	1064.2698557141885	-296.7489865543112	2323.2850451022528	1141.4964855977978	-337.10272167426353	2266.989971214088	1209.7974884063462	-375.14862322251514	2205.709695130975	1282.3436027669977	-411.52752525522504	2159.9791363071677	1356.1320442851786	-377.53951853796104	2140.7804603144286	1452.4765925498937	-255.7732915319049	2228.1750765761644	1256.9468365495966	-410.3956070380129	2241.496497673467	1242.859625861748	-437.639047163383	2322.001401311003	1112.9830970864464	-363.1567446054871	2342.7407305845804	1116.5531059167542	-399.37392948360105	2349.668363331984	1144.1121560216955	-396.5324713191244	2356.142054174009	1160.6000312729943	-402.0427401716467	2360.829156977426	1168.6486772087735	-406.2712000905435	2364.8895462809714	1172.4212133543197	-410.1308676766915	2351.182307512471	1134.7376494954979	-396.9062087869625	2363.718818089046	1148.038852822695	-397.91016359398714	2371.1752361514014	1155.1308064358234	-402.7089688492094	2373.9965571723915	1160.1166282393358	-407.5464783950862	2375.107939314859	1164.6324335255033	-412.80111266661004	2351.172040413742	1124.8332255213145	-398.1299051460138	2363.3946060953854	1132.450129113284	-399.7698598104744	2371.4874300954866	1138.836156568385	-405.16964997107885	2374.870323888475	1144.2022379725654	-411.0843062363105	2376.076204286682	1148.8277666684342	-416.8719420722934	2350.8614233063695	1117.4985053270593	-398.92995060326484	2361.594011959225	1117.9640733495737	-400.980436292223	2368.583749111631	1122.1355140084793	-405.8516968520975	2371.8128180057006	1126.5708953235523	-411.6443662448324	2372.930537763844	1130.5690929784691	-417.1276720666506	2350.0099526057893	1108.6423239780518	-400.1292206610055	2359.388421814736	1103.6211406866212	-402.61913110777914	2364.838755680208	1104.7836412862964	-406.7682824519656	2367.1230462036524	1106.9653218882606	-411.1136553620454	2368.072297044808	1109.9007860878996	-416.0401346028985	2224.036210570479	1261.54398840196	-388.54588983685585	2223.580043776209	1246.0217329328605	-353.54153559692685	2269.926511022847	1140.836904471945	-382.5068396249587	2321.477334628108	1108.745555672561	-360.93653140343434	2325.093381097423	1133.5579160038972	-363.0058440382592	2336.52021200502	1137.8483424855974	-370.2964074806668	2344.6979892769564	1138.0845321037987	-376.4261936684754	2351.7037674681924	1135.9274575971656	-382.4368394757369	2325.558679542606	1127.5391642652105	-366.84979385895184	2335.4522057359163	1139.2604592542798	-380.308305987346	2345.8388920102866	1139.0377817958636	-390.3115545755194	2353.2713994240708	1135.6317395549252	-394.9786802780883	2360.0810246535407	1130.608469403942	-397.79484541625254	2325.9794941670193	1119.2488141471388	-369.274675250839	2335.8559487551283	1126.1995335984893	-383.7131427896444	2347.2176953712474	1124.8141693952273	-394.90577922558333	2356.19809117157	1120.1567120909833	-400.669448705646	2363.6555497139093	1114.3938460075265	-403.81548077388913	2325.992178997879	1113.1619993517897	-370.64750180874034	2334.76040843217	1114.3105767634702	-384.78798764157267	2344.6765648331866	1111.9237375922717	-394.8039703288628	2353.345883064193	1106.8049420411587	-400.5017930564875	2360.361097760283	1101.089586235343	-403.525382015249	2325.9734302178467	1105.2600912276032	-371.8155306815688	2333.8993615712693	1101.678819495295	-385.5198958515067	2341.8224674308353	1097.9220841390606	-393.88493402182445	2348.137494859042	1093.2957077040942	-398.2076518635528	2354.346995751557	1087.7190741891654	-400.9820168390369
237	1.967	2446.805	859.65103	-201.189	2468.397622163859	835.4349182215109	-242.1753316842	2409.6792961187343	429.51070637993706	-269.11190933085805	2505.96679948536	84.24161931400144	-435.3207706581828	2512.765662833091	-24.176489582393405	-308.9168398546502	2431.544407259615	854.9585397637994	-146.802571560974	2305.104591467565	467.38458714179495	-54.16414565855436	2226.545442629362	84.33440618248977	89.0067540388314	2290.7896070553447	22.555082544774603	255.1508582616308	2417.7602260652952	987.4231711895769	-257.26078900067847	2373.8768624768263	1064.343708277509	-296.5280080728226	2323.1259858002068	1141.5813381803425	-336.7766290698398	2266.7437993892477	1209.8966948701122	-374.7097471941847	2205.3792983106896	1282.4656788798638	-410.95263408334205	2159.428217658846	1356.292321973624	-377.3061412529052	2140.223885757738	1452.8475298588235	-255.73933525090516	2227.6906566228045	1256.9481357537127	-409.78976323572084	2240.744392907804	1242.5570061144283	-436.80931586712825	2320.7804238606236	1113.1083161102065	-361.99188938623496	2340.4401744448965	1117.0515667591376	-397.3406977300789	2347.3050369918205	1144.5693964006534	-394.55921196046694	2353.6146700972286	1161.0759547342207	-400.0296211907096	2358.171055332646	1169.1516974508475	-404.20687861396874	2362.1083820500626	1172.9588704647297	-408.00379625282557	2348.7575060032054	1135.239761394372	-394.85730120819903	2361.0286644739103	1148.606735265018	-395.73773562906564	2368.2826845502454	1155.7542628999793	-400.43505564611496	2371.002442746547	1160.7634386177606	-405.22963496792	2372.046133636725	1165.2910208212663	-410.462334480945	2348.710839390701	1125.3718213237682	-396.0207837193073	2360.6549031561913	1133.072609420765	-397.5076976793057	2368.522905695498	1139.5238881832374	-402.7891797143273	2371.781370942429	1144.920358889593	-408.6484131473744	2372.912256496605	1149.5598546151934	-414.4102810032811	2348.3812961028802	1118.061206674037	-396.781423116953	2358.8479221930265	1118.6228879910977	-398.66048202430335	2365.638092886399	1122.85578663361	-403.4211357464209	2368.7452177464143	1127.3229153693735	-409.15636920688667	2369.7915145227134	1131.3353976593244	-414.6135601501711	2347.5155453651932	1109.2308537076246	-397.9390060821505	2356.6412554668623	1104.3137939848534	-400.24588070878957	2361.9273012305416	1105.5322374906154	-404.29553142267366	2364.1204813914296	1107.7403309808808	-408.5937141478572	2365.0052166811547	1110.6903162770507	-413.4940169470311	2223.9183533713467	1261.7623938900124	-388.11738568236797	2223.9454274667	1246.510607962232	-353.33671780679975	2270.1637416034605	1140.9280555106461	-381.7968219245749	2318.86901848054	1112.1711317643403	-357.0823322136603	2322.5946101213963	1136.6893753027475	-358.71161472096014	2333.949205671575	1140.564920917624	-365.7484391082861	2342.070574313742	1140.5141734443023	-371.7365886886777	2349.024103084689	1138.1195986648295	-377.65915407039716	2323.066520015779	1130.6584931879281	-362.62634708125825	2333.0350406579437	1141.8856867246232	-375.71358588584206	2343.375396081719	1141.2779172516243	-385.53613980055275	2350.724177938	1137.6465502983522	-390.13381308863416	2357.42745141206	1132.4462776354862	-392.92141961685525	2323.4634395279913	1122.3887896150084	-365.1632125502784	2333.4001432798304	1128.86875936861	-379.30009934398373	2344.707815648788	1127.0674628448687	-390.3116412718896	2353.5855089253746	1122.1402080780313	-395.9992362607415	2360.925778507677	1116.1846656354762	-399.117770796835	2323.4583000175226	1116.3295041408662	-366.62399914046256	2332.267910038797	1117.0810678323028	-380.56870497560686	2342.1332334977706	1114.3368071402524	-390.4437634546299	2350.7015217683156	1108.9604873355836	-396.07718868737845	2357.605615678678	1103.0652506702431	-399.07918121149305	2323.4091576992178	1108.4710172457508	-367.90914968936204	2331.3575996494833	1104.553332308161	-381.5039078301079	2339.2340337382584	1100.520086048479	-389.7833470627104	2345.472482604283	1095.7105594119946	-394.0722733675928	2351.581889527927	1089.9772804534985	-396.83509236759795
238	1.975	2446.805	859.65103	-201.189	2468.1551583211854	835.3252170969432	-242.28982700029894	2409.4175846078465	429.412227620903	-269.2819448222167	2506.349665993521	84.38553288521092	-435.9437268306554	2513.431838936364	-24.161026393151552	-309.7248656930276	2431.7787840909905	855.0669554210086	-146.68831040288643	2305.012659016874	467.6207675632901	-53.96383158805774	2226.583662035657	84.40763998006192	88.88211085211945	2290.8061792254043	22.587196624009543	255.06732986786835	2417.8101423064595	987.4356117312101	-257.2524957064316	2373.87396800671	1064.3773034952317	-296.4319052839408	2323.0705260735062	1141.6498590934161	-336.56176752272995	2266.647591285244	1210.027965441222	-374.3375882472164	2205.2530747698142	1282.672966600705	-410.39407199779237	2159.1945989804003	1356.5281257551949	-376.9356680401528	2140.0308304561113	1453.2656771530294	-255.54445548856833	2227.37073910017	1257.0388363251127	-409.178441414999	2240.1426035475824	1242.3533373787366	-436.029263956153	2319.445603607364	1113.029483502366	-360.90739637547387	2338.3185348263833	1117.1946396231742	-395.17486988223504	2345.165004185021	1144.5375922558978	-392.55906990014864	2351.2196946421977	1161.0204151161606	-398.10497410570036	2355.5743365453864	1169.1087356718178	-402.2981505642514	2359.322778286422	1172.9512941998928	-406.0769778886014	2346.5442550776143	1135.2880174468817	-392.7400557415892	2358.5197168926206	1148.6537069374813	-393.5626487482068	2365.4866577286343	1155.8443293330001	-398.2244950070774	2368.0259693432845	1160.8808278072772	-403.03399118952944	2368.9189779859234	1165.4313829953394	-408.30397607596495	2346.4381969917513	1125.501377885005	-393.8060758657324	2358.0617417434105	1133.2448782146935	-395.1838561408577	2365.609505411047	1139.753964122926	-400.41395925285076	2368.646921938346	1145.1885759405934	-406.28511190632815	2369.611303445221	1149.85572955799	-412.0848201368274	2346.074846077509	1118.2479791640098	-394.4990361770755	2356.2266590571166	1118.8968537600217	-396.2206593668263	2362.731072554257	1123.191099146257	-400.92376061580734	2365.621452993738	1127.700838817123	-406.6637095448479	2366.50952412324	1131.742083769097	-412.1532651167708	2345.173903808501	1109.4856278549876	-395.582647541746	2353.9911224721945	1104.689605209416	-397.6984970912418	2359.039358713433	1105.9738926561924	-401.6828298914398	2361.070100262915	1108.2211569613792	-405.9751441591823	2361.81217300145	1111.2012719274894	-410.89876289622913	2224.004630421772	1262.024142377906	-387.76204030173955	2224.475703139372	1247.057765208616	-353.0602778220918	2270.4724722459573	1140.8773097173078	-381.1790793959102	2315.84437038813	1115.4207951507333	-353.3916342703202	2319.732558674679	1139.804295828364	-354.59797521908934	2331.016187880132	1143.3842069160276	-361.293065565649	2339.0766108000266	1143.1173102232694	-367.06414769721476	2345.9694715601727	1140.533760752711	-372.82364366385366	2320.200849772226	1133.7345954715	-358.5403334253826	2330.27094564679	1144.61365124337	-371.1379747781593	2340.560334296858	1143.7083550315128	-380.66543584867424	2347.8121617006227	1139.89706614143	-385.1256442644573	2354.3911571808135	1134.5512764568555	-387.83049725004116	2320.557106551435	1125.4464588421893	-361.15328988155954	2330.5709248929015	1131.5769137654318	-374.8537815743239	2341.8171367381697	1129.4495867676594	-385.5550033575988	2350.5750506164413	1124.3046014872973	-391.0823628701466	2357.77797264945	1118.1895145671274	-394.11307654808263	2320.52182512023	1119.3834596316412	-362.67990524008536	2329.377835192042	1119.8198055045775	-376.28941580713513	2339.1834787586376	1116.7905188095083	-385.90663568444234	2347.6329867381705	1111.2037272584607	-391.39221045509396	2354.40640081767	1105.1582646741165	-394.3148108506987	2320.4257073671047	1111.527434882774	-364.05845037480543	2328.3917371736256	1107.323463457039	-377.40176642754864	2336.210636139699	1103.0620147608977	-385.4959173306405	2342.35773150966	1098.0989864265978	-389.6872453709823	2348.348664936463	1092.2326407300463	-392.3856291023873
